# Blender 4.2.3 LTS
# www.blender.org
mtllib model.mtl
o group1953912944
v -0.050571 0.007143 -0.040000
v -0.050571 0.027143 -0.040000
v -0.050571 0.027143 -0.060000
v -0.050571 0.007143 -0.060000
v -0.050571 0.007143 0.060000
v -0.050571 0.027143 0.060000
v -0.050571 0.027143 0.040000
v -0.050571 0.007143 0.040000
v -0.005571 -0.012857 0.105000
v -0.005571 -0.012857 -0.105000
v -0.005571 0.007143 -0.105000
v -0.005571 0.007143 0.105000
v 0.014429 -0.012857 0.105000
v 0.014429 0.007143 0.105000
v 0.014429 0.007143 -0.105000
v 0.014429 -0.012857 -0.105000
v 0.030482 0.027143 -0.040000
v 0.030249 0.027143 -0.060000
v 0.031645 0.027143 0.060000
v 0.031412 0.027143 0.040000
v 0.029902 0.007143 0.060000
v 0.029316 0.007143 -0.040000
v 0.029785 0.007143 0.040000
v 0.029199 0.007143 -0.060000
v 0.029044 0.027143 -0.040000
vn -0.0000 -0.0000 -1.0000
vn -0.0000 -1.0000 -0.0000
vn -1.0000 -0.0000 -0.0000
vn 1.0000 -0.0000 -0.0000
vn -0.0000 1.0000 -0.0000
vn -0.0000 -0.0000 1.0000
vt -0.068647 0.016994
vt -0.070436 0.017889
vt -0.066822 0.025117
vt -0.065080 0.024129
vt 0.031515 -0.027714
vt 0.029631 -0.027041
vt 0.032314 -0.019529
vt 0.034202 -0.020191
vt -0.073003 0.035107
vt -0.071376 0.036269
vt -0.070214 0.034642
vt -0.071841 0.033479
vt -0.066770 0.025221
vt -0.065054 0.024181
vt 0.040932 -0.031077
vt 0.039049 -0.030405
vt 0.041751 -0.022837
vt 0.043639 -0.023499
vt -0.081141 0.029294
vt -0.079513 0.030457
vt -0.078351 0.028829
vt -0.079978 0.027667
vt -0.083640 0.025051
vt -0.066552 0.037257
vt -0.065389 0.035630
vt -0.082478 0.023424
vt 0.065389 0.035630
vt 0.066552 0.037257
vt 0.083640 0.025051
vt 0.082478 0.023424
vt 0.026907 -0.021290
vt 0.027580 -0.019407
vt 0.047356 -0.026470
vt 0.046684 -0.028353
vt -0.047356 -0.026470
vt -0.027580 -0.019407
vt -0.026907 -0.021290
vt -0.046684 -0.028353
vt 0.063952 0.021913
vt 0.065740 0.022808
vt 0.066635 0.021019
vt 0.064846 0.020125
vt -0.066635 0.021019
vt -0.065740 0.022808
vt -0.063952 0.021913
vt -0.064846 0.020125
vt -0.043697 -0.023335
vt -0.041806 -0.022684
vt -0.039049 -0.030405
vt -0.040932 -0.031077
vt -0.034241 -0.020081
vt -0.032350 -0.019430
vt -0.029631 -0.027041
vt -0.031515 -0.027714
vt -0.034192 -0.020216
vt 0.065048 0.024192
vt 0.066759 0.025242
vt 0.070436 0.017889
vt 0.068647 0.016994
vt 0.065075 0.024139
vt 0.066876 0.025010
s 0
usemtl mat22
f 4/1/1 3/2/1 18/3/1 24/4/1
f 1/5/2 4/6/2 24/7/2 22/8/2
f 2/9/3 3/10/3 4/11/3 1/12/3
f 8/1/1 7/2/1 20/13/1 23/14/1
f 5/15/2 8/16/2 23/17/2 21/18/2
f 6/19/3 7/20/3 8/21/3 5/22/3
f 19/47/5 20/48/5 7/49/5 6/50/5
f 17/51/5 18/52/5 3/53/5 2/54/5 25/55/5
f 21/56/6 19/57/6 6/58/6 5/59/6
f 22/60/6 25/61/6 2/58/6 1/59/6
usemtl mat20
f 12/23/3 11/24/3 10/25/3 9/26/3
f 16/27/4 15/28/4 14/29/4 13/30/4
f 10/31/2 16/32/2 13/33/2 9/34/2
f 14/35/5 15/36/5 11/37/5 12/38/5
f 13/39/6 14/40/6 12/41/6 9/42/6
f 11/43/1 15/44/1 16/45/1 10/46/1
