# Blender 4.2.3 LTS
# www.blender.org
mtllib rail.mtl
o group1953912944
v -0.005057 0.000714 -0.004000
v -0.005057 0.002714 -0.004000
v -0.005057 0.002714 -0.006000
v -0.005057 0.000714 -0.006000
v -0.005057 0.000714 0.006000
v -0.005057 0.002714 0.006000
v -0.005057 0.002714 0.004000
v -0.005057 0.000714 0.004000
v -0.000557 -0.001286 0.010500
v -0.000557 -0.001286 -0.010500
v -0.000557 0.000714 -0.010500
v -0.000557 0.000714 0.010500
v 0.001443 -0.001286 0.010500
v 0.001443 0.000714 0.010500
v 0.001443 0.000714 -0.010500
v 0.001443 -0.001286 -0.010500
v 0.003048 0.002714 -0.004000
v 0.003025 0.002714 -0.006000
v 0.003164 0.002714 0.006000
v 0.003141 0.002714 0.004000
v 0.002990 0.000714 0.006000
v 0.002932 0.000714 -0.004000
v 0.002978 0.000714 0.004000
v 0.002920 0.000714 -0.006000
v 0.002904 0.002714 -0.004000
vn -0.0000 -0.0000 -1.0000
vn -0.0000 -1.0000 -0.0000
vn -1.0000 -0.0000 -0.0000
vn -0.0000 1.0000 -0.0000
vn -0.0000 -0.0000 1.0000
vn 1.0000 -0.0000 -0.0000
vt -0.068647 0.016994
vt -0.070436 0.017889
vt -0.066822 0.025117
vt -0.065080 0.024129
vt 0.031515 -0.027714
vt 0.029631 -0.027041
vt 0.032314 -0.019529
vt 0.034202 -0.020191
vt -0.073003 0.035107
vt -0.071376 0.036269
vt -0.070214 0.034642
vt -0.071841 0.033479
vt -0.066770 0.025221
vt -0.065054 0.024181
vt 0.040932 -0.031077
vt 0.039049 -0.030405
vt 0.041751 -0.022837
vt 0.043639 -0.023499
vt -0.081141 0.029294
vt -0.079513 0.030457
vt -0.078351 0.028829
vt -0.079978 0.027667
vt -0.043697 -0.023335
vt -0.041806 -0.022684
vt -0.039049 -0.030405
vt -0.040932 -0.031077
vt -0.034241 -0.020081
vt -0.032350 -0.019430
vt -0.029631 -0.027041
vt -0.031515 -0.027714
vt -0.034192 -0.020216
vt 0.065048 0.024192
vt 0.066759 0.025242
vt 0.070436 0.017889
vt 0.068647 0.016994
vt 0.065075 0.024139
vt 0.066876 0.025010
vt -0.083640 0.025051
vt -0.066552 0.037257
vt -0.065389 0.035630
vt -0.082478 0.023424
vt 0.065389 0.035630
vt 0.066552 0.037257
vt 0.083640 0.025051
vt 0.082478 0.023424
vt 0.026907 -0.021290
vt 0.027580 -0.019407
vt 0.047356 -0.026470
vt 0.046684 -0.028353
vt -0.047356 -0.026470
vt -0.027580 -0.019407
vt -0.026907 -0.021290
vt -0.046684 -0.028353
vt 0.063952 0.021913
vt 0.065740 0.022808
vt 0.066635 0.021019
vt 0.064846 0.020125
vt -0.066635 0.021019
vt -0.065740 0.022808
vt -0.063952 0.021913
vt -0.064846 0.020125
s 0
usemtl mat22
f 4/1/1 3/2/1 18/3/1 24/4/1
f 1/5/2 4/6/2 24/7/2 22/8/2
f 2/9/3 3/10/3 4/11/3 1/12/3
f 8/1/1 7/2/1 20/13/1 23/14/1
f 5/15/2 8/16/2 23/17/2 21/18/2
f 6/19/3 7/20/3 8/21/3 5/22/3
f 19/23/4 20/24/4 7/25/4 6/26/4
f 17/27/4 18/28/4 3/29/4 2/30/4 25/31/4
f 21/32/5 19/33/5 6/34/5 5/35/5
f 22/36/5 25/37/5 2/34/5 1/35/5
usemtl mat20
f 12/38/3 11/39/3 10/40/3 9/41/3
f 16/42/6 15/43/6 14/44/6 13/45/6
f 10/46/2 16/47/2 13/48/2 9/49/2
f 14/50/4 15/51/4 11/52/4 12/53/4
f 13/54/5 14/55/5 12/56/5 9/57/5
f 11/58/1 15/59/1 16/60/1 10/61/1
